# xmcd
#
# Track frame offsets:
#	150
#	16940
#	34250
#	52917
#	66710
#	84570
#	101857
#	114727
#	132250
#	154684
#	173932
#	192582
#	213577
#	233297
#
# Disc length: 3332 seconds
#
# Revision: 1
# Processed by: cddbd v1.4PL0 Copyright (c) Steve Scherf et al.
# Submitted via: audiograbber 1.82.00
#
DISCID=c40d020e
DTITLE=Richard Samuels - Richard Samuels Now
DYEAR=1997
DGENRE=country
TTITLE0=Steel Blue Dress
TTITLE1=Talk About Love
TTITLE2=Wild One
TTITLE3=Runnin' Away
TTITLE4=Will I Ever See You Again
TTITLE5=Nothing Stays The Same
TTITLE6=Time Is You Friend
TTITLE7=Maybe You Know Me
TTITLE8=Now
TTITLE9=Love Will Find You Again
TTITLE10=Eyes Of A Woman
TTITLE11=Days Gone By
TTITLE12=You Were My Love
TTITLE13=Have You Ever Loved A Woman
EXTD=
EXTT0=
EXTT1=
EXTT2=
EXTT3=
EXTT4=
EXTT5=
EXTT6=
EXTT7=
EXTT8=
EXTT9=
EXTT10=
EXTT11=
EXTT12=
EXTT13=
PLAYORDER=
